<?xml version="1.0" encoding="utf-8"?>
<!-- Generator: Adobe Illustrator 22.1.0, SVG Export Plug-In . SVG Version: 6.00 Build 0)  -->
<svg version="1.1" id="Layer_1" xmlns="http://www.w3.org/2000/svg" xmlns:xlink="http://www.w3.org/1999/xlink" x="0px" y="0px"
	 viewBox="0 0 108 120" style="enable-background:new 0 0 108 120;" xml:space="preserve">
<style type="text/css">
	.st0{fill:#152F18;}
	.st1{fill:#056835;stroke:#003F2C;stroke-width:0.256;stroke-miterlimit:10;}
	.st2{fill:#6CBD45;stroke:#003F2C;stroke-width:0.256;stroke-miterlimit:10;}
	.st3{fill:#0B8743;stroke:#003F2C;stroke-width:0.256;stroke-miterlimit:10;}
	.st4{fill:#1A3319;}
	.st5{fill:none;stroke:#0A783D;stroke-width:0.2504;stroke-miterlimit:10;}
	.st6{fill:#475C2A;}
	.st7{fill:none;stroke:#0A783D;stroke-width:0.256;stroke-miterlimit:10;}
	.st8{fill:#0C1C10;}
	.st9{fill:none;stroke:#1E3F1C;stroke-width:1.024;stroke-miterlimit:10;}
	.st10{fill:#003F24;}
	.st11{fill:#133F1D;}
	.st12{fill:none;stroke:#0A783D;stroke-width:0.512;stroke-miterlimit:10;}
	.st13{fill:#056835;stroke:#003F2C;stroke-width:0.5632;stroke-miterlimit:10;}
	.st14{fill:#0D9E49;stroke:#003F2C;stroke-width:0.5632;stroke-miterlimit:10;}
	.st15{fill:#2AB24B;stroke:#003F2C;stroke-width:0.5632;stroke-miterlimit:10;}
	.st16{fill:#0CA34A;stroke:#003F2C;stroke-width:0.5632;stroke-miterlimit:10;}
	.st17{fill:#7C72B3;stroke:#003F2C;stroke-width:0.5632;stroke-miterlimit:10;}
	.st18{fill:#662D91;stroke:#003F2C;stroke-width:0.5632;stroke-miterlimit:10;}
	.st19{fill:#3CB44A;stroke:#003F2C;stroke-width:0.5632;stroke-miterlimit:10;}
	.st20{fill:#6CBD45;stroke:#003F2C;stroke-width:0.5632;stroke-miterlimit:10;}
	.st21{fill:#2DB24A;stroke:#003F2C;stroke-width:0.5632;stroke-miterlimit:10;}
	.st22{fill:#1F6C36;stroke:#003F2C;stroke-width:0.5632;stroke-miterlimit:10;}
	.st23{fill:#0C8040;stroke:#003F2C;stroke-width:0.5632;stroke-miterlimit:10;}
</style>
<g>
	<path class="st0" d="M77,41c0,2.2,0.1,4.5,1.2,6.4c0.4,0.6,0.9,1.2,1.3,1.8c0.7,1,1.1,2.1,1.7,3.1c0.8,1.7,1.8,3.4,2.8,5
		c0.9,1.5,1.8,3.1,3.3,4.1c1.5,1.1,3.5,1.4,4.9,2.7c1.2,1,1.9,2.5,3.3,3.2c0.8,0.4,1.7,0.5,2.6,0.4c1.2-0.1,2.5-0.5,3.4-1.4
		c1-1.2,1-3.1,0.4-4.5c-0.6-1.5-1.6-2.7-2.4-4.1c-1-1.8-1.6-3.7-2.6-5.4c-1.2-2.1-3.2-3.9-3.6-6.3c-0.1-0.8-0.1-1.6-0.1-2.4
		c-0.1-1.2-0.5-2.3-1-3.4c-0.8-1.8-1.9-3.7-3.5-4.8c-1.2-0.9-2.7-1.3-4.2-1.7c-0.3-0.1-0.6-0.2-0.9-0.2c-1.1,0-2,1.1-2.8,1.7
		c-0.6,0.4-1.3,0.6-1.9,0.9C77,37.1,76.9,39.3,77,41z"/>
	<g>
		<path class="st1" d="M75,25.8c0-0.4,0.1-0.8,0.4-1s0.7-0.4,1-0.3c0.4,0.1,0.6,0.5,0.5,0.9c0,0.1-0.1,0.2-0.2,0.2
			c-0.2,0-0.3-0.3-0.4-0.4c-0.2-0.2-0.6,0-0.8,0.3c-0.1,0.3-0.1,0.6-0.3,0.9c0,0,0,0.1-0.1,0.1c0,0-0.1,0-0.1,0
			c-0.4-0.4-0.3-1,0-1.4"/>
		<path class="st1" d="M76.4,29.4c-0.1,0-0.1-0.2,0-0.4c0.2-0.2,0.4-0.5,0.7-0.6c0.3-0.1,0.6-0.2,0.9,0c0.2,0.2,0.3,0.6,0.1,0.8
			c-0.3-0.3-0.7-0.4-1.1-0.4c0.2,0.5,0.1,1-0.3,1.4c-0.2-0.5-0.3-1.1-0.3-1.6"/>
		<path class="st1" d="M77.4,31.8c0.5-0.1,1-0.2,1.5-0.1c-0.1,0.2-0.4,0.2-0.6,0.1c-0.2-0.1-0.6-0.1-0.6,0.1c0-0.2,0.1-0.3,0.1-0.5"
			/>
		<path class="st1" d="M79.2,31.2c-0.3,0.1-0.4,0.5-0.2,0.7c0.1,0.2,0.5,0.3,0.8,0.2s0.4-0.4,0.3-0.7C80,31,79.5,30.8,79.1,31
			s-0.5,0.7-0.2,1c0.1,0.1,0.3,0.2,0.4,0.1"/>
		<path class="st1" d="M80.8,31c0.4-0.2,0.7-0.6,0.9-1c0.3-0.6,0.5-1.5,0-2c-0.7-0.8-3.1-0.7-3.5,0.5C77.7,29.9,79.4,31.5,80.8,31z"
			/>
		<path class="st1" d="M76.9,26.9c0.3,0.5,1,0.6,1.5,0.6c0.1,0,0.3,0,0.4-0.1c0.5-0.1,0.9-0.5,1.1-0.9c0.2-0.4,0.3-1,0.2-1.5
			c-0.1-0.6-0.4-1.2-0.9-1.6c-0.5-0.4-1.2-0.5-1.8-0.2c-0.5,0.3-0.8,1.1-0.5,1.6C77.7,25.9,76,25.7,76.9,26.9z"/>
		<path class="st1" d="M83.3,37.8c0.6,0.1,1.3,0,1.8-0.3c0.3-0.1,0.5-0.3,0.7-0.5c0.7-0.6,0.8-1.6,0.8-2.5c-0.1-0.6-0.2-1.3-0.6-1.8
			c-1-1.4-3.6-0.8-4.4,0.7C80.8,34.8,81.5,37.4,83.3,37.8z"/>
		<path class="st1" d="M82,43.6c0.7-0.4,1.2-1.3,1.1-2.1c-0.2-2.2-3.6-4-4.8-1.5C77.3,42.3,79.6,45.2,82,43.6z"/>
		<path class="st1" d="M80.3,51.9c0.3,0.1,0.6,0.2,0.9,0.2c1.3,0,2.7-0.7,3-1.9c0.1-0.3,0.1-0.6,0.1-0.9c-0.1-1-0.7-1.9-1.6-2.3
			c-1.1-0.5-3-0.4-3.4,0.9C79,49.1,79,51.2,80.3,51.9z"/>
		<path class="st1" d="M84.4,41.9c0.5,0.2,1,0.2,1.5,0.2c0.4,0,0.8-0.1,1.2-0.4c0.3-0.2,0.5-0.6,0.7-0.9c0.3-0.6,0.3-1.3,0.2-1.9
			c-0.5-1.6-2.9-2-4-0.8C83,39.2,83.1,41.4,84.4,41.9z"/>
		<path class="st1" d="M79.7,33.8c-0.6,0.3-1,0.8-1.3,1.4c-0.1,0.2-0.2,0.5-0.1,0.8c0,0.1,0.1,0.3,0.2,0.4c0.3,0.5,0.7,0.9,1.2,1.1
			c0.5,0.2,1.1,0.3,1.6,0c0.1,0,0.1-0.1,0.1-0.2c0-0.1,0-0.1-0.1-0.1c-0.6-0.6-0.9-1.6-0.7-2.4c0.1-0.3,0.4-0.7,0.1-1
			C80.6,33.5,80,33.7,79.7,33.8z"/>
		<path class="st1" d="M76.1,38.8C76.2,38.8,76.2,38.8,76.1,38.8c0.1,0,0.1-0.1,0.2-0.1c0.3-0.8,1.2-1.3,2-1.2c-0.3,0-0.3-1-0.4-1.2
			c-0.1-0.5,0.1-0.5-0.4-0.9c-0.6-0.5-1.6-0.7-2.2-0.2C74.1,36.1,74.4,38.7,76.1,38.8z"/>
		<path class="st1" d="M77.7,42.7c0.1-0.1-0.1-0.2-0.2-0.3c-0.7-0.1-1.5,0.1-2,0.6c-0.7,0.7-0.7,1.9-0.6,2.9c0,0.2,0,0.4,0.1,0.6
			c0.1,0.4,0.5,0.6,0.9,0.7c0.4,0.1,0.8,0.1,1.1,0.1c1-0.1,2.2-0.3,2.7-1.1c0.4-0.6,0.4-1.3,0.3-2c-0.3-0.1-0.7-0.2-1-0.4
			c-0.5-0.3-0.9-0.8-1-1.4c-0.3-0.1-0.7-0.1-1,0c-0.1-0.2-0.1-0.3-0.2-0.5"/>
		<path class="st1" d="M87.3,37.7c0.5,0.3,1.1,0.2,1.6,0c0.6-0.2,1.2-0.6,1.5-1.2c0.2-0.4,0.2-0.9,0.1-1.3c-0.2-0.8-0.7-1.6-1.5-1.9
			c-0.8-0.3-1.7-0.3-2.4,0.3c0.5,0.9,0.2,1.6,0,2.5C86.4,36.7,86.6,37.4,87.3,37.7z"/>
		<path class="st1" d="M85.3,43.6c0.4,1,1.2,1.8,2.3,2.1c1,0.3,2.1,0,2.7-0.7c0.4-0.5,0.6-1.1,0.6-1.8c0-1.6-1.2-3.1-2.7-3.5
			c0,1.5-1.3,2.8-2.7,2.9c-0.2,0-0.3,0-0.5,0.1C85.2,43,85.2,43.3,85.3,43.6z"/>
		<path class="st2" d="M84.2,47.8c0,0.2,0.1,0.5,0.1,0.7c0.1,0.2,0.1,0.5,0.3,0.6c0.2,0.3,0.5,0.4,0.9,0.6c0.4,0.2,0.9,0.4,1.4,0.3
			c0.3,0,0.6-0.2,0.8-0.3c0.6-0.4,1-0.9,1.1-1.6c0.1-0.6-0.1-1.2-0.5-1.7c-0.5-0.5-1.2-0.9-1.9-0.9C85,45.6,84.1,46.4,84.2,47.8z"/>
		<path class="st1" d="M94.1,45.6c0.7-0.6,0.7-1.6,0.6-2.5c-0.1-0.8-0.4-1.8-1.1-2.1c-0.6-0.2-1.2-0.1-1.8,0.1
			c-0.3,0.1-0.7,0.2-1,0.3c0.7-0.2,0,3.8,0.1,4C91,46.7,93.4,46.3,94.1,45.6z"/>
		<path class="st2" d="M86.6,53.7c0.5,1,1.7,1.6,2.7,1.4c0.4-0.1,0.8-0.3,1.1-0.5c0.8-0.5,1.6-1.4,1.6-2.4c0-0.9-0.4-1.7-1.1-2.2
			c-1-0.7-2.9-0.8-3.8,0.2C86.2,51,86.1,52.7,86.6,53.7z"/>
		<path class="st1" d="M92.8,51.5c0.6,0.3,1.2,0.3,1.8,0.2c0.7-0.2,1.4-0.6,1.9-1.1c0.2-0.3,0.4-0.6,0.5-0.9
			c0.2-0.6,0.1-1.2-0.1-1.7C96.1,46,93.6,45,92,46.6C90.7,47.9,91.1,50.7,92.8,51.5z"/>
		<path class="st1" d="M83.5,54c-0.3,0.8,0.1,1.6,0.6,2.2c0.2,0.2,0.3,0.4,0.6,0.5c0.3,0.1,0.6,0.2,0.9,0.1c1-0.1,1.9-0.7,2.5-1.5
			c-0.4-0.2-0.8-0.5-1.2-0.8c-0.4-0.3-0.7-0.7-0.8-1.2c-0.1-0.4,0-0.9-0.5-1.1C84.8,51.9,83.7,53.4,83.5,54z"/>
		<path class="st1" d="M80.8,55.4c-0.4,1-0.1,2.2,0.6,2.9c0.2,0.2,0.4,0.3,0.6,0.4c0.4,0.1,0.9,0,1.2-0.3c0.3-0.3,0.6-0.6,0.8-1
			c0.1-0.1,0.2-0.3,0.3-0.4c0,0,0,0,0-0.1c0-0.1,0-0.1-0.1-0.2c-0.5-0.4-0.9-0.9-1.1-1.5c-0.2-0.6-0.1-1.1,0.1-1.7
			c0.2-0.5,0.4-0.6-0.2-0.5C82.1,53.1,81.1,54.6,80.8,55.4z"/>
		<path class="st3" d="M86.5,61.8c-0.2-1.3,0.6-2.7,1.9-3.1c0.1,0,0.2-0.1,0.3-0.2c0-0.1,0-0.2,0-0.2c-0.3-1.2-0.9-2-2.2-1.9
			c-0.8,0.1-1.8,0.3-2.2,1.1C83.3,59.3,84.1,62.2,86.5,61.8z"/>
		<path class="st1" d="M92.2,59.1c0.8-0.2,1.5-0.7,2-1.3c0.3-0.4,0.6-0.8,0.6-1.3c0-0.3-0.1-0.5-0.2-0.7c-0.8-1.5-3.7-2.3-4.6-0.6
			C89,56.8,89.9,59.6,92.2,59.1z"/>
		<path class="st1" d="M95.2,54.4c0.3,0,0.6-0.1,0.8-0.2c0.8-0.3,1.5-1.1,1.7-1.9c0.2-0.9-0.1-1.8-0.8-2.4c0.4,0.3-1,1.6-1.2,1.7
			c-0.7,0.4-1.5,0.1-2.2,0.4C92,52.8,94.3,54.5,95.2,54.4z"/>
		<path class="st3" d="M98.1,53.7c1.3,0.5,2.1,2,1.8,3.4c-0.1,0.4-0.2,0.7-0.5,1c-0.2,0.2-0.5,0.4-0.7,0.6c-1.4,0.7-4.6,0-3.8-2
			c0.3-0.6,0.3-1.4,0.6-2C96.1,53.9,97.2,53.3,98.1,53.7z"/>
		<path class="st3" d="M93.7,63.1c0.3,0.1,0.5,0.3,0.8,0.3c0.2,0,0.4,0,0.6,0c0.6-0.1,1.3-0.3,1.8-0.7c0.7-0.6,1-1.6,0.7-2.5
			c-0.6-1.9-3-2.1-4.5-1.2c-0.6,0.4-0.8,1-0.9,1.7C92,61.9,92.7,62.6,93.7,63.1z"/>
		<path class="st3" d="M98.4,61.7c0.5,0.5,1.2,0.7,1.9,0.7c0.7,0,1.4-0.3,2-0.7c0.4-0.3,0.8-0.6,0.9-1.1c0-0.2,0-0.4,0-0.6
			c-0.2-1.1-0.9-2.2-1.8-2.9c-0.2-0.1-0.4-0.3-0.7-0.3s-0.5,0.1-0.7,0.3c-0.1,0.1-0.1,0.3-0.1,0.4c-0.1,0.5-0.4,0.9-0.8,1.2
			c-0.4,0.2-1,0.1-1.3,0.5C97.4,59.8,97.9,61.3,98.4,61.7z"/>
		<path class="st2" d="M95.7,63.6c-0.2,0.1-0.3,0.4-0.4,0.6c-0.4,0.9-0.4,2,0.2,2.8s1.6,1.3,2.5,1.1c0.6-0.1,1.1-0.5,1.5-0.9
			c0.3-0.3,0.5-0.5,0.7-0.9c0.2-0.4,0.2-0.8,0.1-1.3c-0.1-0.7-0.2-1.4-0.6-1.9c-0.4-0.6-1.1-0.9-1.8-0.8c-0.4,0.1-0.8,0.4-1.1,0.6
			c-0.3,0.2-0.6,0.4-0.8,0.6c-0.3,0.2-0.5,0.4-0.7,0.7s-0.3,0.6-0.2,0.9c0,0,0,0,0,0"/>
		<path class="st1" d="M100.7,65c0,0.7-0.2,1.3-0.5,1.9c0,0.1,0,0.1,0,0.2c0,0.1,0.1,0.1,0.1,0.1c0.8,0.6,2,0.6,2.9,0.1
			c0.9-0.5,1.4-1.6,1.3-2.6c-0.1-1-0.8-2-1.8-2.3c-0.2-0.1-0.4-0.1-0.6-0.1c-0.5,0-1.8,0.2-1.9,0.8c0,0.2,0.2,0.5,0.3,0.7
			C100.6,64.2,100.7,64.6,100.7,65z"/>
		<path class="st1" d="M92.1,64.2c-0.5,0.5-1.1,1.2-1,1.9c0.1,0.4,0.3,0.7,0.5,1c0.4,0.5,0.8,1.1,1.4,1.2c0.3,0,0.6,0,0.8-0.1
			c0.2-0.1,0.5-0.2,0.7-0.4c0.5-0.5,0.4-1.3,0.2-2c-0.1-0.2-0.2-0.5-0.2-0.7c0-0.2,0.2-0.5,0.2-0.7c0-0.2-0.2-0.4-0.4-0.5
			C93.5,63.5,92.7,63.6,92.1,64.2z"/>
		<path class="st1" d="M96.5,70.2c0.2,0.2,0.5,0.3,0.8,0.4c0.6,0.1,1.2-0.2,1.5-0.6s0.5-1,0.7-1.6c0-0.2,0-0.5-0.2-0.6
			c-0.5,0.1-1,0.3-1.6,0.4c-0.9,0.2-1.7-1-2.4-0.5C94.3,68.6,95.9,69.8,96.5,70.2z"/>
		<path class="st2" d="M89.3,58.7c-0.3-0.1-0.6-0.1-0.9,0.1s-0.5,0.4-0.7,0.7c-0.4,0.6-0.8,1.3-0.8,2.1c0,0.8,0.2,1.5,0.8,2
			c0.3,0.2,0.7,0.4,1.1,0.4c0.6,0.1,1.3,0,1.9-0.2c0.6-0.3,1-0.8,1.2-1.4c0.2-0.6,0.1-1.2-0.2-1.8c-0.2-0.5-0.6-1-1-1.5
			c-0.4-0.4-0.8-0.7-1.3-0.7c-0.4,0.1-0.7,0.4-1.1,0.3"/>
		<path class="st1" d="M90.5,37.7c0.2,0.1,0.3,0.2,0.5,0.4c0.3,0.3,0.5,0.5,0.8,0.8c0.1,0.1,0.2,0.2,0.3,0.3
			c0.2,0.4,0.1,0.9-0.2,1.3s-0.8,0.6-1.2,0.7c0,0-0.1,0-0.1,0c-0.1,0-0.2-0.1-0.2-0.3c-0.2-0.4-0.5-0.8-0.8-1
			c-0.3-0.2-1-0.4-1.1-0.7C88.3,38.3,89.8,37.4,90.5,37.7z"/>
		<path class="st1" d="M77.4,49.5c-0.3,0.5-0.3,1.2-0.1,1.7c0.2,0.4,0.5,0.8,0.9,1.1c0.3,0.3,0.5,0.5,0.9,0.7
			c0.8,0.4,1.9,0.1,2.4-0.6c-0.5,0-1.1,0-1.5-0.4c-0.4-0.3-0.6-0.9-0.7-1.4c-0.1-0.6-0.3-1.1-0.2-1.7c0.1-0.6,0.3-1.1-0.5-0.8
			C78,48.4,77.6,49.1,77.4,49.5z"/>
		<path class="st1" d="M82.3,46.2c0.3,0.3,0.8,0.3,1.2,0.3c0.5,0,1.1-0.1,1.5-0.5c0.2-0.3,0.3-0.7,0.3-1.1c0-0.4,0-0.8-0.2-1.2
			C84.1,41.6,80.6,44.5,82.3,46.2z"/>
		<path class="st1" d="M75.4,41.1c0.2,0,0.5,0,0.6-0.2c0.1-0.1,0.1-0.2,0.1-0.3c0.1-0.7-0.3-3.2-1.6-2.4
			C73.4,38.8,74.5,40.9,75.4,41.1z"/>
		<path class="st1" d="M76.1,40.5c0.1-0.7,0.3-1.4,0.7-1.9c0.4-0.6,1-1,1.7-1.1c0.9-0.2,2,0.3,2.5,1.1c-0.4-0.3-0.9-0.3-1.4-0.1
			s-0.8,0.5-1.1,0.9c-0.3,0.3-0.5,0.6-0.6,1c-0.1,0.3,0,0.8-0.3,1.1C76.9,42.1,76.1,41.2,76.1,40.5z"/>
	</g>
	<g>
		<path class="st4" d="M83.6,107.9c0.6-0.7,0.9-1.7,0.5-2.4c-0.6-1-2-0.9-3.1-1.3c-1-0.4-1.9-1.2-2.9-1.5c-1.6-0.4-3.2,0.4-4.5,1.5
			c-0.4,0.3-0.8,0.7-1.3,0.8c-0.5,0.2-1.1,0.1-1.3-0.4c-0.3-0.5,0-1.1-0.1-1.6c-0.1-0.9-1.2-1.5-2.1-1.3c-0.9,0.2-1.6,1.1-2,2
			c-0.2,0.6-0.3,1.2-0.9,1.5c-0.3,0.1-0.6,0.1-0.9,0.2c-1.5,0.3-2.4,1.8-3.7,2.5c-0.5,0.3-1.2,0.6-1,1.2c0.1,0.2,0.2,0.3,0.2,0.5
			c0,0.3-0.4,0.5-0.7,0.6c-0.3,0.1-0.7,0.2-1,0.3c-0.3,0.1-0.7,0.3-0.7,0.6c0,0.3,0.2,0.4,0.5,0.5c0.2,0,0.5,0,0.8-0.1
			c0.9-0.1,1.8,0,2.6,0.4c0.4,0.2,0.7,0.6,0.5,1c-0.1,0.2-0.3,0.3-0.4,0.5c-0.2,0.5,0.4,0.9,0.4,1.4c0,0.2-0.1,0.3,0,0.5
			c0.1,0.2,0.3,0.2,0.4,0.3c0.6,0.3,0.6,1.3,0.2,1.9c-0.4,0.6-1,1.1-1.3,1.8c1.2-0.3,2.5-0.7,3.7-1c0.5-0.1,1-0.3,1.4-0.6
			c1-0.7,1.5-2.2,2.6-2.6c0.2-0.1,0.4-0.1,0.6,0c0.2,0.2,0.1,0.5-0.1,0.8c-0.2,0.2-0.4,0.5-0.4,0.7c0.4,0,0.8,0,1.1,0.2
			c0.3,0.2,0.5,0.6,0.4,0.9c0.5-0.2,0.9,0.3,1.4,0.3c0.4,0,0.8-0.3,1.1-0.7c0.3-0.4,0.5-0.8,0.9-1s1-0.2,1.1,0.3
			c0.5-0.6,0.9-1.2,1.4-1.8c0.2-0.3,0.4-0.5,0.8-0.6c0.3,0,0.6,0.1,0.8,0.2s0.7,0,0.8-0.2c0.1-0.4-0.6-0.8-0.4-1.2
			c0.1-0.3,0.6-0.3,0.9-0.4c-1.3-0.7-0.5-1.9,0.5-2.5C81,109.9,82.6,109,83.6,107.9z"/>
		<path class="st5" d="M77.8,111.3c-0.7-1.2-1.9-2.1-3.2-2.4c-1-0.2-2.1-0.1-3.1,0c-1,0.1-2.1,0.2-3.1,0.4c-1.2,0.2-2.3,0.7-3.5,0.8
			c-1.2,0.1-2.5,0-3.3-0.8c0-0.1,0-0.3,0-0.4"/>
		<path class="st5" d="M74.4,109.9c0.1-0.1,0.2-0.2,0.2-0.3c-0.6-0.3-1.4-0.1-2,0.2c-2.3,0.9-4.3,2.7-5.5,4.9
			c-0.4,0.7-0.7,1.4-1.2,2c-0.7,0.7-1.6,1.1-2.6,1.1"/>
		<path class="st5" d="M74.4,108.3c0.2-0.2,0.2-0.5,0-0.7c-0.1-0.2-0.4-0.2-0.6-0.3c-1.2-0.2-2.3-0.5-3.5-0.4
			c-0.7,0.1-1.4,0.3-2.1,0.2c-0.2,0-0.5-0.1-0.5-0.3c0-0.1,0-0.2,0-0.3c0.1-0.5,0.2-1.1,0.6-1.5"/>
		<path class="st5" d="M77.1,109.7c-0.1-0.2-0.2-0.5-0.3-0.7c-0.2-0.5-0.4-1-0.5-1.5c-0.1-0.8,0-1.6,0.2-2.4
			c0.1-0.4,0.2-0.8,0.5-1.1c0.4-0.4,0.9-0.6,1.4-0.8"/>
		<path class="st5" d="M77.3,110.2c0.5-0.1,1-0.5,1.3-0.9c0.4-0.4,0.7-0.9,1.1-1.3c1.1-1.1,3-1.3,3.8-2.6"/>
		<path class="st5" d="M76.4,112c0.1,0,0-0.1-0.1-0.1c-1.2,0-2.4,0.6-3.3,1.5c-0.6,0.7-1.1,1.6-1.9,1.8c-0.1,0-0.2,0-0.3,0
			c-0.1,0-0.1-0.2-0.1-0.3"/>
	</g>
	<path class="st6" d="M45.6,6.8c-0.6-0.7-1.5-1.1-2.3-0.8c-1.1,0.4-1.3,1.9-1.9,3c-0.6,1-1.6,1.7-2.1,2.7c-0.7,1.5-0.2,3.3,0.6,4.8
		c0.2,0.4,0.5,0.9,0.6,1.4s-0.1,1.1-0.6,1.3c-0.5,0.2-1.1-0.1-1.7-0.1c-1,0-1.8,1-1.7,2c0.1,1,0.8,1.8,1.6,2.3
		c0.5,0.3,1.2,0.5,1.3,1.1c0.1,0.3,0,0.6,0,1c0,1.5,1.4,2.6,1.9,4.1c0.2,0.5,0.4,1.3,1,1.2c0.2,0,0.4-0.2,0.6-0.1
		c0.3,0,0.4,0.4,0.5,0.8c0,0.3,0.1,0.7,0.1,1c0,0.3,0.2,0.8,0.5,0.8c0.3,0,0.5-0.2,0.6-0.4c0.1-0.2,0.1-0.5,0.1-0.8
		c0-0.9,0.4-1.8,0.9-2.5c0.3-0.3,0.8-0.7,1.1-0.4c0.2,0.1,0.3,0.4,0.5,0.5c0.4,0.3,1-0.3,1.4-0.2c0.2,0,0.3,0.1,0.5,0.1
		c0.2,0,0.3-0.2,0.4-0.4c0.5-0.6,1.4-0.4,2,0c0.6,0.5,1,1.1,1.6,1.6c-0.1-1.3-0.2-2.6-0.3-3.9c0-0.5-0.1-1-0.3-1.5
		c-0.5-1.1-1.9-1.8-2.1-3c0-0.2,0-0.4,0.1-0.6c0.2-0.2,0.6,0,0.8,0.2s0.4,0.5,0.7,0.6c0.1-0.4,0.2-0.8,0.4-1.1s0.7-0.4,1-0.2
		c-0.1-0.5,0.5-0.8,0.6-1.3c0.1-0.4-0.2-0.9-0.5-1.2c-0.3-0.3-0.7-0.6-0.9-1c-0.2-0.4,0-1,0.5-1.1c-0.5-0.6-1-1.1-1.5-1.7
		c-0.2-0.2-0.5-0.5-0.4-0.8c0-0.3,0.3-0.5,0.4-0.8c0.1-0.3,0.2-0.7-0.1-0.8c-0.4-0.2-0.9,0.5-1.3,0.3c-0.2-0.2-0.1-0.7-0.2-0.9
		c-1,1.2-2.1,0.2-2.4-0.9C47.1,9.6,46.5,7.9,45.6,6.8z"/>
	<path class="st7" d="M52.9,32.1c-1.3,0.5-2.5,1.6-3,2.9c-0.4,1-0.5,2.1-0.6,3.2c-0.1,1.1-0.2,2.1-0.2,3.2c0,1.2,0.2,2.4,0.1,3.7
		c-0.1,1.2-0.5,2.5-1.5,3.2c-0.1,0-0.3-0.1-0.4-0.1"/>
	<path class="st7" d="M50.8,35.4c-0.1-0.1-0.2-0.2-0.3-0.3c-0.4,0.6-0.4,1.4-0.2,2c0.5,2.5,1.9,4.7,3.9,6.3c0.6,0.5,1.3,0.9,1.8,1.5
		c0.6,0.8,0.8,1.8,0.6,2.8"/>
	<path class="st7" d="M49.2,35.1c-0.2-0.2-0.5-0.3-0.7-0.1c-0.2,0.1-0.3,0.4-0.4,0.6c-0.5,1.1-0.9,2.3-1,3.5c-0.1,0.7,0,1.4-0.2,2.1
		c-0.1,0.2-0.2,0.4-0.4,0.5c-0.1,0-0.2,0-0.3-0.1c-0.5-0.2-1.1-0.4-1.4-0.8"/>
	<path class="st7" d="M51.1,32.6c-0.2,0.1-0.5,0.1-0.7,0.2c-0.5,0.1-1.1,0.3-1.6,0.3c-0.8,0-1.6-0.2-2.3-0.6c-0.4-0.2-0.7-0.4-1-0.7
		c-0.4-0.4-0.5-1-0.6-1.5"/>
	<path class="st7" d="M51.7,32.5c0-0.6-0.3-1.1-0.7-1.5c-0.4-0.4-0.8-0.8-1.1-1.3c-0.9-1.3-0.7-3.2-1.9-4.2"/>
	<path class="st7" d="M53.4,33.6c0-0.1-0.2,0-0.2,0.1c-0.2,1.2,0.2,2.5,0.9,3.5c0.6,0.7,1.4,1.3,1.5,2.2c0,0.1,0,0.2-0.1,0.3
		c-0.1,0.1-0.2,0.1-0.3,0"/>
	<path class="st4" d="M18.5,77.2c-0.9-0.2-1.9,0.1-2.3,0.8c-0.6,1,0.3,2.2,0.5,3.4c0.2,1.1-0.1,2.2,0.2,3.3c0.4,1.6,2.1,2.5,3.6,3.1
		c0.5,0.2,1,0.3,1.4,0.7c0.4,0.3,0.6,0.9,0.4,1.3c-0.3,0.5-0.9,0.6-1.3,0.9c-0.8,0.6-0.7,1.8,0,2.5c0.7,0.7,1.8,0.8,2.7,0.6
		c0.6-0.1,1.2-0.3,1.7,0c0.3,0.2,0.4,0.5,0.7,0.7c1,1.1,2.8,1.1,4.1,1.8c0.5,0.3,1.2,0.7,1.5,0.3c0.1-0.1,0.2-0.4,0.3-0.5
		c0.3-0.2,0.6,0,0.9,0.3c0.3,0.2,0.5,0.5,0.8,0.7c0.3,0.2,0.6,0.5,0.9,0.3c0.2-0.1,0.3-0.4,0.2-0.7c-0.1-0.2-0.3-0.4-0.4-0.6
		c-0.6-0.7-0.9-1.5-0.9-2.4c0-0.4,0.2-1,0.6-1c0.2,0,0.4,0.1,0.7,0.1c0.5-0.1,0.5-0.8,1-1c0.1-0.1,0.3-0.1,0.4-0.2
		c0.1-0.1,0-0.3,0-0.5c0-0.7,0.8-1.2,1.5-1.2c0.7,0,1.5,0.2,2.2,0.2c-0.9-0.9-1.9-1.7-2.8-2.6c-0.4-0.3-0.7-0.7-1.2-0.9
		c-1.1-0.5-2.6-0.1-3.6-0.9c-0.2-0.1-0.3-0.3-0.3-0.5c0.1-0.3,0.4-0.4,0.7-0.3s0.6,0.1,0.9,0c-0.2-0.3-0.4-0.7-0.4-1
		c0-0.4,0.2-0.8,0.6-0.8c-0.4-0.3-0.2-0.9-0.4-1.4c-0.2-0.4-0.7-0.5-1.2-0.6s-0.9,0-1.3-0.2c-0.4-0.2-0.7-0.8-0.3-1.1
		c-0.7-0.1-1.5-0.2-2.2-0.3c-0.3,0-0.7-0.1-0.9-0.4c-0.2-0.2-0.2-0.5-0.2-0.8s-0.3-0.6-0.6-0.5c-0.4,0.1-0.3,1-0.8,1
		c-0.3,0-0.6-0.4-0.8-0.6c0,1.5-1.4,1.4-2.4,0.9C21.5,78.4,19.9,77.5,18.5,77.2z"/>
	<path class="st5" d="M24.3,80.5c-0.7,1.2-0.8,2.7-0.4,4c0.3,1,1,1.8,1.6,2.7c0.6,0.8,1.2,1.7,2,2.4c0.8,0.9,1.8,1.6,2.5,2.6
		c0.7,0.9,1.3,2.1,1,3.3c-0.1,0.1-0.3,0.1-0.4,0.2"/>
	<path class="st5" d="M24.9,84.1c-0.1,0-0.3,0-0.4-0.1c0.1,0.7,0.6,1.2,1.2,1.6c2,1.5,4.6,2.3,7.1,2.2c0.8,0,1.6-0.2,2.3,0
		c1,0.2,1.8,0.8,2.3,1.6"/>
	<path class="st5" d="M23.5,84.9c-0.3-0.1-0.5,0.1-0.6,0.3c-0.1,0.2,0,0.5,0.1,0.7c0.4,1.1,0.8,2.3,1.5,3.2c0.4,0.6,1,1,1.2,1.7
		c0.1,0.2,0.1,0.5,0,0.6c-0.1,0.1-0.2,0.1-0.3,0.2c-0.5,0.2-1.1,0.4-1.6,0.3"/>
	<path class="st5" d="M23.3,81.8c-0.1,0.2-0.3,0.4-0.4,0.6c-0.3,0.4-0.6,0.9-1.1,1.2c-0.6,0.5-1.4,0.8-2.1,1
		c-0.4,0.1-0.8,0.2-1.2,0.1c-0.6-0.1-1-0.4-1.5-0.8"/>
	<path class="st5" d="M23.7,81.4c-0.4-0.4-0.9-0.6-1.5-0.7c-0.5-0.1-1.1-0.1-1.6-0.2c-1.5-0.4-2.7-1.9-4.2-1.9"/>
	<path class="st5" d="M25.7,81.2c0-0.1-0.1,0.1-0.1,0.2c0.7,1,1.8,1.8,3,2c0.9,0.2,1.9,0.1,2.6,0.7c0.1,0.1,0.2,0.2,0.2,0.3
		c0,0.1-0.1,0.2-0.2,0.2"/>
	<path class="st0" d="M21.1,50.1c-1.5,1.6-3.1,3.2-3.7,5.4c-0.2,0.7-0.2,1.5-0.4,2.2c-0.2,1.2-0.7,2.3-1,3.4
		c-0.6,1.8-1.1,3.7-1.6,5.5c-0.5,1.7-0.9,3.5-0.6,5.2c0.3,1.8,1.4,3.5,1.5,5.3c0.1,1.5-0.5,3.1,0,4.6c0.3,0.8,0.9,1.5,1.5,2.1
		c0.9,0.8,2.1,1.5,3.4,1.4c1.6-0.1,2.8-1.5,3.5-2.9s0.8-3.1,1.2-4.6c0.6-1.9,1.5-3.7,2-5.7c0.6-2.4,0.5-5,2-7
		c0.5-0.6,1.1-1.2,1.6-1.8c0.8-0.9,1.3-2,1.7-3.1c0.7-1.9,1.3-3.9,0.9-5.9c-0.3-1.5-1-2.9-1.7-4.2c-0.2-0.3-0.3-0.6-0.5-0.8
		c-0.8-0.7-2.2-0.6-3.2-0.8c-0.7-0.1-1.3-0.5-2-0.6C23.8,47.3,22.2,48.9,21.1,50.1z"/>
	<path class="st1" d="M30.5,38c0.3-0.3,0.6-0.5,1-0.5c0.4,0,0.8,0.2,0.9,0.5c0.2,0.3,0.1,0.8-0.2,1c-0.1,0-0.2,0.1-0.3,0
		c-0.2-0.1,0-0.4,0-0.6c0-0.3-0.4-0.5-0.7-0.4c-0.3,0.1-0.5,0.3-0.8,0.5c0,0-0.1,0-0.1,0c0,0,0-0.1,0-0.1c0-0.5,0.5-1,1-0.9"/>
	<path class="st1" d="M28.9,41.5c-0.1-0.1,0.1-0.2,0.2-0.3c0.3,0,0.6-0.1,0.9,0c0.3,0.1,0.6,0.3,0.6,0.6c0,0.3-0.2,0.6-0.5,0.6
		c0-0.4-0.2-0.8-0.5-1c-0.2,0.5-0.7,0.8-1.2,0.7c0.2-0.5,0.6-1,1-1.4"/>
	<path class="st1" d="M27.9,43.9c0.4,0.3,0.8,0.6,1.1,1c-0.2,0.1-0.4-0.2-0.5-0.4c-0.1-0.2-0.3-0.5-0.5-0.4c0.1-0.1,0.3-0.2,0.4-0.3
		"/>
	<path class="st1" d="M29.6,44.7c-0.3-0.1-0.6,0.1-0.7,0.4c-0.1,0.3,0.1,0.6,0.4,0.7c0.3,0.1,0.6,0,0.7-0.3c0.2-0.3,0-0.8-0.3-1
		c-0.4-0.1-0.8,0.2-0.9,0.6c0,0.2,0.1,0.4,0.3,0.4"/>
	<path class="st1" d="M30.8,45.7c0.4,0.2,0.9,0.1,1.3,0c0.7-0.2,1.4-0.7,1.4-1.4c0.1-1.1-1.7-2.7-2.8-2.2
		C29.5,42.8,29.5,45.1,30.8,45.7z"/>
	<path class="st1" d="M31,40.1c-0.1,0.6,0.2,1.1,0.7,1.5c0.1,0.1,0.2,0.2,0.3,0.2c0.4,0.3,1,0.3,1.5,0.2c0.5-0.1,0.9-0.5,1.2-0.9
		c0.4-0.5,0.6-1.1,0.5-1.8c-0.1-0.6-0.5-1.2-1.1-1.4c-0.6-0.2-1.3,0.2-1.5,0.8C32.3,39.9,31.2,38.6,31,40.1z"/>
	<path class="st1" d="M27.8,52.3c0.3,0.5,0.9,0.9,1.5,1.1c0.3,0.1,0.5,0.2,0.8,0.2c0.9,0,1.7-0.5,2.3-1.2c0.4-0.5,0.8-1.1,0.9-1.7
		c0.3-1.7-2-3.1-3.5-2.6C28.1,48.4,26.8,50.8,27.8,52.3z"/>
	<path class="st1" d="M22.8,55.5c0.8,0.2,1.7-0.1,2.3-0.7c1.4-1.7,0.3-5.4-2.3-4.5C20.3,51.2,19.9,54.9,22.8,55.5z"/>
	<path class="st1" d="M15.7,60.1c0.1,0.3,0.3,0.6,0.5,0.8c0.9,0.9,2.4,1.4,3.5,0.8c0.2-0.1,0.5-0.3,0.7-0.6c0.6-0.7,0.9-1.8,0.5-2.8
		c-0.4-1.1-1.8-2.4-3-1.8C16.8,57.2,15.2,58.7,15.7,60.1z"/>
	<path class="st1" d="M25.7,56c0.2,0.5,0.5,0.9,0.9,1.2c0.3,0.3,0.7,0.5,1.1,0.6c0.4,0.1,0.8,0,1.1-0.2c0.6-0.2,1.1-0.6,1.4-1.2
		c0.8-1.5-0.6-3.5-2.3-3.4C26.6,53.1,25.1,54.7,25.7,56z"/>
	<path class="st1" d="M28.1,47c-0.6-0.2-1.3-0.1-1.9,0.1c-0.3,0.1-0.5,0.2-0.7,0.5c-0.1,0.1-0.1,0.3-0.1,0.4
		c-0.1,0.5-0.1,1.1,0.1,1.7c0.2,0.5,0.6,1,1.2,1.1c0.1,0,0.2,0,0.2,0c0,0,0-0.1,0-0.2c0-0.9,0.5-1.7,1.2-2.2
		c0.3-0.2,0.8-0.2,0.8-0.6C29,47.3,28.4,47.1,28.1,47z"/>
	<path class="st1" d="M22,47.9C22.1,48,22.1,48,22,47.9c0.1,0.1,0.2,0,0.2,0c0.8-0.4,1.8-0.1,2.3,0.6c-0.2-0.2,0.5-1,0.6-1.1
		c0.3-0.5,0.4-0.3,0.3-1c-0.1-0.8-0.6-1.6-1.4-1.7C22.6,44.6,20.9,46.7,22,47.9z"/>
	<path class="st1" d="M20.3,51.8c0.1,0,0.1-0.2,0-0.3c-0.4-0.6-1.1-1-1.9-1c-1,0-1.8,0.9-2.5,1.6c-0.1,0.2-0.3,0.3-0.4,0.5
		c-0.1,0.4-0.1,0.8,0.1,1.1c0.2,0.3,0.5,0.6,0.7,0.9c0.8,0.7,1.7,1.4,2.7,1.1c0.7-0.2,1.2-0.7,1.7-1.2c-0.2-0.3-0.3-0.6-0.4-1
		c-0.1-0.6,0-1.2,0.3-1.7c-0.1-0.3-0.4-0.5-0.7-0.7c0.1-0.2,0.1-0.3,0.2-0.5"/>
	<path class="st1" d="M30.6,55.1c0.2,0.5,0.6,0.9,1.1,1.1c0.6,0.3,1.3,0.4,1.9,0.2c0.4-0.2,0.8-0.5,1-0.8c0.5-0.7,0.6-1.6,0.3-2.4
		c-0.3-0.8-1.1-1.4-1.9-1.5c-0.3,1-1,1.3-1.8,1.8C30.7,53.8,30.4,54.4,30.6,55.1z"/>
	<path class="st1" d="M25.1,57.9c-0.4,1-0.4,2.1,0.1,3.1c0.5,0.9,1.4,1.5,2.4,1.4c0.6,0,1.3-0.4,1.7-0.8c1.1-1.1,1.4-3,0.6-4.4
		c-1.1,1-2.9,1.1-4,0.1c-0.1-0.1-0.2-0.2-0.4-0.2C25.4,57.3,25.2,57.6,25.1,57.9z"/>
	<path class="st2" d="M21.3,60c-0.2,0.2-0.3,0.4-0.4,0.6c-0.1,0.2-0.2,0.4-0.3,0.6c-0.1,0.3,0.1,0.7,0.2,1c0.2,0.4,0.4,0.9,0.8,1.2
		c0.2,0.2,0.5,0.3,0.8,0.4c0.7,0.1,1.4,0.1,1.9-0.3c0.5-0.4,0.8-1,0.8-1.6c0-0.7-0.2-1.4-0.7-1.9C23.5,59,22.2,59,21.3,60z"/>
	<path class="st1" d="M29.9,65.5c0.9,0,1.7-0.6,2.2-1.4c0.5-0.6,1-1.5,0.7-2.3c-0.2-0.6-0.8-0.9-1.3-1.2c-0.3-0.2-0.6-0.3-0.9-0.5
		c0.6,0.3-2.6,2.7-2.8,2.9C27,64.1,28.9,65.4,29.9,65.5z"/>
	<path class="st2" d="M18.8,65.8c-0.3,1,0,2.3,1,2.9c0.3,0.2,0.7,0.4,1.1,0.4c1,0.2,2.1,0.1,2.8-0.5c0.6-0.6,0.9-1.5,0.7-2.3
		c-0.2-1.2-1.5-2.6-2.8-2.6C20.5,63.7,19.2,64.8,18.8,65.8z"/>
	<path class="st1" d="M24.8,68.7c0.2,0.6,0.6,1.1,1.2,1.4c0.6,0.4,1.4,0.6,2.1,0.5c0.4,0,0.7-0.1,1-0.3c0.5-0.3,0.9-0.8,1.1-1.3
		c0.8-1.8-0.3-4.3-2.5-4.3C25.8,64.6,24.1,66.9,24.8,68.7z"/>
	<path class="st1" d="M16.5,63.9c-0.7,0.4-1.1,1.2-1.2,2c0,0.3,0,0.5,0,0.8c0.1,0.3,0.3,0.6,0.6,0.8c0.8,0.6,1.9,0.9,2.8,0.7
		c-0.2-0.4-0.2-0.9-0.3-1.4c0-0.5,0-1,0.2-1.4c0.2-0.4,0.7-0.6,0.5-1.1C18.8,63.4,17,63.6,16.5,63.9z"/>
	<path class="st1" d="M13.6,62.9c-1,0.4-1.7,1.5-1.6,2.5c0,0.2,0,0.5,0.1,0.7c0.2,0.4,0.6,0.6,1.1,0.7s0.9,0,1.3-0.1
		c0.2,0,0.3-0.1,0.5-0.1c0,0,0.1,0,0.1,0c0.1,0,0-0.1,0-0.2c0-0.6,0-1.2,0.3-1.8c0.3-0.6,0.7-0.8,1.3-1.1c0.4-0.2,0.7-0.1,0.2-0.5
		C16.1,62.3,14.3,62.6,13.6,62.9z"/>
	<path class="st3" d="M13.1,71.5c0.8-1,2.4-1.4,3.5-0.9c0.1,0,0.2,0.1,0.3,0.1c0.1,0,0.1-0.1,0.2-0.2c0.6-1,0.8-2.1-0.2-2.9
		c-0.6-0.5-1.5-1.1-2.4-0.8C12.6,67.4,11,70.1,13.1,71.5z"/>
	<path class="st1" d="M18.9,73.6c0.7,0.5,1.6,0.6,2.4,0.5c0.5,0,1-0.2,1.4-0.5c0.2-0.2,0.3-0.4,0.4-0.7c0.5-1.6-1-4.2-2.9-3.7
		C18.3,69.7,17,72.4,18.9,73.6z"/>
	<path class="st1" d="M24.4,72.5c0.2,0.2,0.4,0.4,0.7,0.5c0.8,0.4,1.8,0.3,2.5-0.2c0.7-0.5,1.2-1.4,1.1-2.3c0,0.5-1.8,0.4-2.1,0.3
		c-0.8-0.2-1.1-1-1.8-1.3C23.3,69.1,23.7,71.8,24.4,72.5z"/>
	<path class="st3" d="M27,74c0.6,1.3,0,2.9-1.1,3.7c-0.3,0.2-0.7,0.3-1.1,0.4c-0.3,0-0.6,0-0.9-0.1c-1.5-0.5-3.3-3.2-1.3-4.1
		c0.6-0.3,1.2-0.8,1.9-1C25.4,72.7,26.6,73.1,27,74z"/>
	<path class="st3" d="M17.2,77.6c0.1,0.3,0.2,0.6,0.3,0.8c0.1,0.2,0.3,0.3,0.4,0.4c0.5,0.4,1.1,0.7,1.8,0.7c0.9,0.1,1.9-0.5,2.3-1.3
		c0.9-1.7-0.6-3.6-2.3-4c-0.7-0.1-1.3,0.2-1.8,0.6C16.9,75.5,16.9,76.4,17.2,77.6z"/>
	<path class="st3" d="M21.5,79.9c0,0.7,0.4,1.4,0.9,1.9c0.5,0.5,1.2,0.7,1.9,0.9c0.5,0.1,1,0.1,1.4-0.2c0.2-0.1,0.3-0.3,0.4-0.5
		c0.7-1,0.9-2.2,0.7-3.3c0-0.3-0.1-0.5-0.3-0.7s-0.4-0.3-0.7-0.2c-0.1,0.1-0.3,0.2-0.4,0.3c-0.4,0.3-0.9,0.4-1.4,0.3
		c-0.4-0.1-0.8-0.6-1.2-0.6C22.2,77.8,21.5,79.2,21.5,79.9z"/>
	<path class="st2" d="M18.2,79.3c-0.2,0-0.5,0-0.7,0.1c-0.9,0.4-1.7,1.2-1.9,2.1c-0.2,1,0.2,2.1,1,2.6c0.5,0.3,1.1,0.4,1.7,0.4
		c0.4,0,0.8,0,1.1-0.1c0.4-0.2,0.7-0.5,1-0.8c0.4-0.5,0.8-1.1,0.9-1.8c0.1-0.7-0.2-1.5-0.7-1.8c-0.4-0.2-0.8-0.3-1.2-0.3
		c-0.4,0-0.7-0.1-1.1-0.1c-0.3,0-0.7-0.1-1,0c-0.3,0.1-0.6,0.3-0.8,0.6c0,0,0.1,0,0,0"/>
	<path class="st1" d="M20.7,83.8c-0.5,0.4-1.1,0.7-1.7,1c-0.1,0-0.1,0.1-0.2,0.1c0,0.1,0,0.1,0,0.2c0.2,1,1,1.9,2,2.1
		s2.1-0.1,2.8-0.9c0.7-0.8,0.8-2,0.4-2.9c-0.1-0.2-0.2-0.4-0.3-0.5c-0.3-0.4-1.4-1.1-1.9-0.8c-0.2,0.1-0.2,0.5-0.3,0.7
		C21.3,83.2,21.1,83.5,20.7,83.8z"/>
	<path class="st1" d="M15.2,77.2c-0.8,0-1.6,0.1-2.1,0.7c-0.2,0.3-0.3,0.7-0.4,1c-0.1,0.6-0.2,1.3,0.1,1.9c0.2,0.2,0.4,0.4,0.6,0.5
		c0.2,0.1,0.5,0.2,0.7,0.2c0.7,0,1.3-0.6,1.5-1.3c0.1-0.2,0.2-0.5,0.4-0.6c0.2-0.1,0.5-0.2,0.6-0.4C17,79,17,78.8,17,78.6
		C16.8,77.7,16.1,77.2,15.2,77.2z"/>
	<path class="st1" d="M14.1,84.5c0,0.3,0.1,0.6,0.3,0.8c0.3,0.5,0.9,0.7,1.5,0.6s1.1-0.3,1.6-0.7c0.2-0.1,0.4-0.3,0.3-0.5
		c-0.5-0.3-0.9-0.5-1.4-0.8c-0.8-0.4-0.5-1.9-1.3-2C13.7,81.8,14,83.8,14.1,84.5z"/>
	<path class="st2" d="M17.2,71.3c-0.1-0.3-0.4-0.5-0.7-0.6c-0.3-0.1-0.6-0.1-0.9,0c-0.7,0.1-1.5,0.4-2,0.9s-0.9,1.3-0.8,2
		c0.1,0.4,0.2,0.7,0.4,1.1c0.4,0.5,0.9,1,1.5,1.2c0.6,0.2,1.3,0.2,1.9-0.1c0.5-0.3,0.9-0.8,1.1-1.4c0.2-0.6,0.3-1.2,0.3-1.8
		c0-0.5-0.1-1.1-0.5-1.4c-0.3-0.2-0.8-0.2-1-0.6"/>
	<path class="st1" d="M33,57.4c0.1,0.2,0.1,0.4,0.1,0.6c0,0.4,0,0.7,0,1.1c0,0.2,0,0.3,0,0.5c-0.1,0.5-0.6,0.8-1,0.8
		c-0.5,0-0.9-0.1-1.3-0.4c0,0-0.1,0-0.1-0.1c-0.1-0.1,0-0.2,0-0.3c0.2-0.4,0.2-0.9,0.2-1.3c0-0.4-0.4-1-0.2-1.3
		C31,56.2,32.7,56.7,33,57.4z"/>
	<path class="st1" d="M15.4,56.4c-0.6,0.2-1.1,0.6-1.3,1.1c-0.2,0.4-0.2,0.9-0.2,1.4c0,0.4,0,0.7,0.1,1.1c0.3,0.8,1.2,1.4,2.1,1.3
		c-0.4-0.4-0.7-0.8-0.8-1.3c-0.1-0.5,0.2-1.1,0.5-1.5c0.3-0.5,0.6-1,1.1-1.3c0.5-0.3,1-0.6,0.2-0.9C16.6,56.1,15.8,56.2,15.4,56.4z"
		/>
	<path class="st1" d="M21.2,57.5c0,0.4,0.3,0.8,0.6,1c0.4,0.4,0.9,0.7,1.4,0.7c0.4,0,0.7-0.3,1-0.6c0.3-0.3,0.5-0.6,0.7-1
		C25.7,55.5,21.2,55.1,21.2,57.5z"/>
	<path class="st1" d="M19.9,49c0.1,0.2,0.3,0.3,0.5,0.3c0.1,0,0.2-0.1,0.3-0.2c0.5-0.5,2.1-2.4,0.6-2.8C20.2,46,19.4,48.3,19.9,49z"
		/>
	<path class="st1" d="M20.8,49.1c0.5-0.4,1.2-0.8,1.8-0.9c0.7-0.1,1.4,0,2,0.4c0.8,0.5,1.2,1.6,1,2.5c-0.1-0.5-0.4-0.9-0.9-1
		c-0.4-0.2-0.9-0.2-1.4-0.2c-0.4,0-0.8,0.1-1.1,0.2c-0.3,0.2-0.6,0.6-1,0.6C20.3,50.8,20.3,49.6,20.8,49.1z"/>
	<path class="st8" d="M49.5,29.1c1-2.8,3.6-4.7,6.3-5.9c3.1-1.4,6.4-2.3,9.7-2.6c0.8-0.1,1.7-0.1,2.2-0.7c0.4-0.4,0.5-1.1,0.6-1.6
		C69,13.6,69.2,8.9,69,4.3c0-0.8-0.1-1.7,0.2-2.4s1-1.4,1.9-1.3c1.4,0.1,1.7,1.9,1.8,3.3c0.1,4.8,0.3,9.5,0.7,14.3
		c0,0.6,0.2,1.2,0.7,1.4c0.3,0.1,0.7,0,1-0.2c2.1-0.9,4.2-2,6-3.4c3.9-3,11-7.6,15.9-8.4c-1,4.4-11.8,5.9-12,10.4
		c8.9-2.6,14.4-3.8,23.7-3.6c-6.6,2.6-5.9,4.1-13,4.7c-2.3,0.2-8.7,0.2-11,0.6c-3.2,0.6-6.2,1.8-9.3,3c-1.6,0.6-3.2,1.3-4.4,2.4
		c-1.3,1.3-2.1,3-2.8,4.7c-1.8,4.4-3.7,8.9-4,13.7c-0.1,1.6-0.1,3.3-1.1,4.5c-0.6-1.4-1.2-2.9-1.8-4.3c2.9-3.4,1.6-8.7,3.3-12.9
		c0.6-1.5,1.6-2.9,2.1-4.4s0.1-3.6-1.4-4.3c-1.2-0.6-2.6-0.1-3.8,0.4c-2.3,0.9-4.6,1.8-6.4,3.4c-0.9,0.8-1.7,1.8-2.7,2.6
		s-2.3,1.3-3.5,1c0.2-1.2,0.9-2.3,1.9-3c-0.1-0.8-0.1-1.5-0.2-2.3"/>
	<path class="st0" d="M33.6,39.4c-1.7,4.5-3.3,9.3-2.5,14.1c0.3,1.6,0.9,3.2,1.2,4.8c0.6,2.5,0.7,5.1,0.9,7.7
		c0.4,4.2,1,8.3,1.7,12.5c0.6,3.8,1.3,7.8,3.5,11.1c2.3,3.4,6,5.7,7.9,9.3c1.6,3,1.8,6.7,4.1,9.2c1.3,1.4,3.1,2.3,5,2.8
		c2.6,0.8,5.6,1.1,8-0.2c3.1-1.7,4.4-5.5,4.3-9s-1.2-6.9-1.7-10.4c-0.6-4.4-0.2-8.8-1-13.2c-0.9-5.3-3.5-10.5-2.3-15.8
		c0.4-1.7,1.1-3.3,1.6-5c0.7-2.5,0.7-5.2,0.6-7.9c-0.2-4.4-0.9-9-3.4-12.7c-1.9-2.8-4.6-4.9-7.3-6.9c-0.6-0.4-1.1-0.9-1.8-1.1
		c-2.3-0.8-4.9,0.7-7.1,1.3c-1.6,0.4-3,0.2-4.6,0.5C36.7,31.4,34.9,35.9,33.6,39.4z"/>
	<path class="st9" d="M48.8,46.5c0.6,3.4,0.6,7.3-1.9,9.6c-2.3,2.1-6.1,2.4-7.5,5.1c-0.8,1.6-0.4,3.7,0.7,5.1s2.8,2.3,4.6,2.7
		c1,0.2,2.1,0.3,3,0.8c1,0.4,1.8,1.3,1.8,2.4c0,1.5-1.7,2.4-3.1,3.1c-1.1,0.6-2.1,1.3-3.1,2.1c-0.8,0.7-1.7,1.7-1.4,2.8
		c0.2,0.9,1.1,1.4,1.9,1.6c0.9,0.1,1.8-0.1,2.6-0.3c3.3-0.9,6.8-1.9,9.6-4s4.9-5.3,4.7-8.8c-0.1-1-0.4-2.1-0.2-3.1s0.8-2.1,1.8-2.2
		c1.6-0.2,2.4,1.8,2.4,3.4c-0.1,3.5-2,6.7-4.1,9.5c-2.1,2.8-4.5,5.4-6,8.6c-0.7,1.5-1.3,3.2-2.6,4.1c-1.6,1.1-4.2,1-4.8,2.9
		c-0.5,1.6,1.3,3.1,3,3.4c1.7,0.3,3.5-0.1,5.1,0.5c0.5,0.2,1.1,0.6,1.3,1.1c0.5,1.2-1,2.3-2.1,2.9c-1.5,0.8-2.9,1.8-4.2,2.9
		c-0.7,0.6-1.3,1.3-1.1,2.2c0.2,0.8,1.1,1.2,1.8,1.2s1.5-0.3,2.3-0.6c2.1-0.6,4.5-0.2,6,1.5c1.8,2.1,1.5,5.2,1,8
		c2.4,1,5.2-0.9,6.1-3.3c0.9-2.4,0.5-5.1-0.2-7.6c-0.7-2.7-1.7-5.3-2.9-7.8c-0.7-1.4-1.4-2.8-1.5-4.4c-0.1-3.6,3.4-6.3,4.7-9.7
		c0.4-0.9,0.6-1.9,0.1-2.7c-0.8-1.4-3.1-1.5-3.6-3.1c-0.4-1.3,1-2.7,0.6-4c-0.5-1.4-2.4-1.4-3.8-1.7c-2.4-0.5-4.2-2.4-5-4.7
		c-0.8-2.3-0.6-4.8,0.2-7.1c0.6-1.7,1.4-3.5,0.8-5.2c-0.5-1.5-2.1-2.4-3.6-2.6s-3.1,0.1-4.6,0.4c-3.8,0.8-7.7,1.7-11.1,3.6
		c0.5-1.7,1.6-3.2,3.1-4c0.1,0.5-0.6,0.9-1.1,0.8c-0.5-0.1-0.9-0.6-1.2-1.1c-0.5-0.7-1.1-1.5-1.1-2.4c-0.1-0.9,0.5-1.9,1.4-1.9
		c0.8,3.6-1.7,7.2-1.4,10.9c0.1,1.5,0.7,2.9,0.9,4.4c0.2,1.5,0.1,3.2-1,4.2c-0.4,0.4-1.1,0.9-0.9,1.5c0.1,0.6,0.9,0.7,1.5,0.6
		c2.3-0.3,4-2.1,5.8-3.5c5-4,11.9-5.5,18.1-4.1c1.5,0.3,3.1,0.9,3.7,2.3c0.5,1.1,0.2,2.5-0.5,3.6c-2,3.4-6.3,4.4-9.6,6.5
		c-1.8,1.2-3.4,2.8-5.6,3.2c-2.2,0.4-4.5-0.7-6.7-0.3c-0.8,0.1-1.6,0.5-2,1.1s-0.3,1.7,0.4,2.1c0.6,0.3,1.4,0,2.1,0
		c3.3-0.2,4.6,4.7,7.7,5.6c1.5,0.4,3.1-0.1,4.3-1c1.3-0.9,2.2-2.1,3.3-3.2c2.7-2.8,6-5,9.6-6.5c0.6,1.2,0.1,2.7-0.6,3.9
		c-2.9,5.1-8.7,8.5-14.6,8.5c-1,0-2.1-0.1-3.1,0.3s-1.8,1.3-1.7,2.3c0.1,0.8,0.8,1.6,0.5,2.3c-0.2,0.4-0.7,0.7-1.1,0.9
		c-1.2,0.6-2.1,1.8-2.4,3c-0.3-0.8-0.7-1.5-1.3-2.1c-0.5,0.4-0.4,1.2,0,1.7s1.1,0.6,1.7,0.7c3.3,0.7,6.5,1.4,9.8,2.2
		c0.7,0.1,1.4,0.3,2,0.2c1.6-0.3,2.5-1.9,3.7-2.9c0.8-0.7,1.7-1.1,2.7-1.3c0.4-0.1,0.8-0.1,1.1,0.1c0.8,0.4,0.7,1.5,0.4,2.4
		c-1.7,4.6-6.8,7.7-11.7,7.1c-0.8-0.1-1.6-0.3-2.4,0.1c-1.3,0.6-1,2.9,0.3,3.2"/>
	<path class="st10" d="M49,47.8c0,0.2-0.1,0.5-0.1,0.7c0-9.1-0.4-18.2-1-27.2c0.2,1.3,0.3,2.5,0.2,3.8c0-1.7,0-3.5,0-5.2
		c0.1,1.1,0.2,2.2,0.3,3.3c0.1-0.9,0.1-1.9,0-2.8c0.4-0.1,0.5-0.9,0.9-0.9c0.4,9.3,0.8,18.5,1.2,27.8c0,0.5,0,1-0.4,1.3
		C49.5,48.9,48.9,48.4,49,47.8z"/>
	<path class="st11" d="M39.7,44.7c-0.6,1.2-2.6,0.8-4,0.7c0.2,0.6,0.4,1.2,0.4,1.9c0.6,0,1.3-0.1,1.9-0.3c1.5-0.4,12.4-2.9,10.9-4.9
		C47.3,40,39.9,44.3,39.7,44.7z"/>
	<path class="st6" d="M34,15.5c-0.1-1.8-1-3.7-2.7-4.2c-2.3-0.7-4.4,1.4-6.6,2.4c-2.1,0.9-4.6,0.7-6.7,1.8c-3,1.5-4.3,5.1-4.8,8.4
		c-0.2,1-0.3,2.1-0.8,3s-1.6,1.6-2.6,1.3c-1.1-0.3-1.6-1.6-2.5-2.3c-1.5-1.2-4-0.6-5.1,1.1c-1.1,1.6-1,3.8-0.2,5.6
		c0.5,1.1,1.2,2.3,0.8,3.4c-0.2,0.6-0.7,1-1.2,1.6c-1.9,2.4-1,5.9-2,8.7c-0.4,1.1-0.9,2.6,0.1,3.1c0.3,0.2,0.8,0.2,1.1,0.5
		c0.5,0.5,0.2,1.3-0.2,1.8C0.3,52,0,52.6-0.4,53.2c-0.4,0.6-0.7,1.4-0.2,1.9c0.3,0.4,1,0.3,1.4,0.1s0.7-0.7,1.1-1.1
		c1.1-1.4,2.8-2.4,4.5-2.8c0.9-0.2,2-0.1,2.3,0.8c0.1,0.4,0,0.9,0.1,1.3c0.4,0.9,1.9,0.7,2.5,1.5c0.2,0.3,0.3,0.6,0.6,0.8
		c0.3,0.2,0.7,0,1.1-0.1c1.4-0.4,2.8,1.1,3.1,2.5s0.1,3,0.5,4.4c1.4-2.2,2.8-4.3,4.2-6.5c0.5-0.8,1.1-1.7,1.3-2.7
		c0.6-2.4-0.9-5.2,0.3-7.4c0.2-0.4,0.5-0.7,0.9-0.7c0.6,0,0.9,0.7,1,1.3c0.1,0.6,0,1.2,0.4,1.7c0.6-0.5,1.2-1,2-1.1
		c0.8-0.2,1.7,0.2,1.9,0.9c0.5-0.9,1.8-0.7,2.6-1.4c0.7-0.6,0.8-1.6,0.7-2.5c-0.1-0.9-0.4-1.8-0.1-2.7c0.3-0.9,1.3-1.6,2.1-1.1
		c-0.1-1.5-0.2-3-0.3-4.5c0-0.6-0.1-1.4,0.4-1.9c0.4-0.5,1.1-0.5,1.6-0.8c0.6-0.2,1.1-0.9,0.8-1.4c-0.4-0.8-2.1-0.3-2.4-1.2
		c-0.2-0.6,0.6-1.3,0.8-1.7c-3,0.7-3.5-2.1-2.7-4.3C33,21.8,34.1,18.3,34,15.5z"/>
	<path class="st12" d="M29.9,28.2c-2.7-0.8-5.8-0.5-8.3,0.9c-1.9,1.1-3.4,2.7-4.8,4.2c-1.4,1.5-2.9,3.1-4.1,4.8
		c-1.4,2-2.6,4.1-4.3,5.9c-1.6,1.8-3.8,3.3-6.3,3.3c-0.2-0.2-0.4-0.4-0.6-0.7"/>
	<path class="st12" d="M22.7,30.8c0-0.3,0-0.5-0.1-0.8c-1.3,0.4-2.2,1.7-2.8,3c-2.2,4.5-2.8,9.8-1.5,14.7c0.4,1.5,1,3,1,4.6
		c0,1.9-0.9,3.9-2.4,5.1"/>
	<path class="st12" d="M20.5,28.4c0-0.5-0.4-1-1-1.1c-0.5-0.1-0.9,0.2-1.4,0.4C16,29,13.9,30.2,12.2,32c-1,1-1.7,2.3-2.9,3.1
		c-0.4,0.2-0.9,0.4-1.3,0.2c-0.2-0.1-0.3-0.3-0.5-0.5c-0.6-0.9-1.2-1.9-1.2-3.1"/>
	<path class="st12" d="M31.6,45.8c-0.5-0.2-0.9-0.4-1.4-0.6c-1-0.5-2-0.9-2.9-1.6c-1.3-1-2.2-2.3-3-3.8c-0.4-0.7-0.7-1.5-0.8-2.3
		c-0.1-1.1,0.5-2.2,1-3.2"/>
	<path class="st12" d="M32.6,46.3c0.7-0.9,0.8-2,0.8-3.1c-0.1-1.1-0.3-2.2-0.2-3.3c0.2-3.1,2.8-6,2.1-9"/>
	<path class="st12" d="M29,31.2c0.2-0.1-0.2-0.2-0.4-0.1c-1.8,1.7-2.9,4.2-2.8,6.7c0,1.8,0.6,3.8-0.4,5.3c-0.1,0.2-0.3,0.4-0.5,0.4
		s-0.5-0.1-0.5-0.3"/>
	<path class="st6" d="M62.8,19.5c-0.9-0.2-1.9,0.1-2.3,0.9c-0.6,1.1,0.3,2.3,0.5,3.5c0.2,1.1-0.1,2.3,0.2,3.4c0.4,1.6,2,2.6,3.6,3.2
		c0.5,0.2,1,0.3,1.4,0.7c0.4,0.3,0.6,0.9,0.4,1.4c-0.3,0.5-0.9,0.6-1.4,1c-0.8,0.6-0.7,1.9,0,2.6c0.7,0.7,1.8,0.9,2.7,0.6
		c0.6-0.1,1.2-0.4,1.7,0c0.3,0.2,0.4,0.5,0.6,0.7c1,1.2,2.8,1.1,4.1,1.9c0.5,0.3,1.2,0.7,1.5,0.3c0.1-0.1,0.2-0.4,0.3-0.5
		c0.3-0.2,0.6,0,0.9,0.3c0.3,0.2,0.5,0.5,0.8,0.7c0.3,0.2,0.6,0.5,0.9,0.3c0.2-0.1,0.3-0.4,0.2-0.7c-0.1-0.2-0.3-0.4-0.4-0.6
		c-0.6-0.7-0.9-1.6-0.9-2.5c0-0.4,0.2-1,0.6-1.1c0.2,0,0.4,0.1,0.7,0.1c0.5-0.1,0.5-0.8,1-1.1c0.1-0.1,0.3-0.1,0.4-0.2
		c0.1-0.2,0.1-0.4,0-0.6c0-0.7,0.8-1.3,1.5-1.3c0.7,0,1.5,0.2,2.2,0.2c-0.9-0.9-1.8-1.8-2.8-2.7c-0.4-0.4-0.7-0.7-1.2-0.9
		c-1.1-0.5-2.6-0.1-3.6-0.9c-0.2-0.1-0.3-0.3-0.3-0.5c0.1-0.3,0.4-0.4,0.7-0.4c0.3,0,0.6,0.1,0.9,0c-0.2-0.3-0.4-0.7-0.4-1.1
		c0-0.4,0.2-0.8,0.6-0.8c-0.4-0.3-0.2-1-0.4-1.4c-0.2-0.4-0.7-0.5-1.2-0.6c-0.5,0-0.9,0-1.3-0.2c-0.4-0.2-0.6-0.8-0.3-1.1
		c-0.7-0.1-1.5-0.2-2.2-0.3c-0.3,0-0.7-0.1-0.9-0.4c-0.2-0.2-0.2-0.6-0.2-0.9S71.3,20,71,20c-0.4,0.1-0.3,1-0.8,1
		c-0.3,0-0.6-0.4-0.8-0.6c0,1.5-1.4,1.5-2.4,0.9C65.8,20.7,64.2,19.8,62.8,19.5z"/>
	<path class="st7" d="M68.7,22.8c-0.7,1.3-0.8,2.8-0.4,4.1c0.3,1,1,1.9,1.6,2.8c0.6,0.9,1.2,1.7,1.9,2.5c0.8,0.9,1.8,1.7,2.5,2.7
		c0.7,1,1.2,2.2,1,3.4c-0.1,0.1-0.3,0.1-0.4,0.2"/>
	<path class="st7" d="M69.2,26.6c-0.1,0-0.3,0-0.4-0.1c0.1,0.7,0.6,1.3,1.2,1.7c2,1.5,4.5,2.3,7.1,2.2c0.8,0,1.6-0.2,2.3,0
		c1,0.2,1.8,0.8,2.3,1.7"/>
	<path class="st7" d="M67.8,27.5c-0.3-0.1-0.5,0.1-0.6,0.4c-0.1,0.2,0,0.5,0.1,0.7c0.4,1.2,0.8,2.3,1.5,3.3c0.4,0.6,0.9,1.1,1.2,1.7
		c0.1,0.2,0.1,0.5,0,0.6c-0.1,0.1-0.2,0.1-0.3,0.2c-0.5,0.2-1.1,0.4-1.6,0.3"/>
	<path class="st7" d="M72.6,43.3c-0.1,0.2-0.3,0.4-0.4,0.6c-0.3,0.5-0.7,0.9-1.1,1.3c-0.6,0.5-1.4,0.9-2.1,1.1
		c-0.4,0.1-0.8,0.2-1.2,0.2c-0.6-0.1-1-0.4-1.4-0.8"/>
	<path class="st7" d="M73,42.9c-0.4-0.4-0.9-0.6-1.5-0.7c-0.5-0.1-1.1-0.1-1.6-0.2c-1.5-0.4-2.6-1.9-4.2-1.9"/>
	<path class="st7" d="M75,42.6c0-0.1-0.1,0.1-0.1,0.2c0.7,1.1,1.8,1.8,3,2.1c0.9,0.2,1.9,0.1,2.6,0.7c0.1,0.1,0.2,0.2,0.2,0.3
		c0,0.1-0.1,0.2-0.2,0.2"/>
	<g>
		<g>
			<path class="st13" d="M44.2,7.8C44.5,7.1,45,6.4,45.8,6c0.7-0.4,1.7-0.4,2.3,0.2s0.9,1.5,0.4,2.2c-0.1,0.2-0.3,0.3-0.5,0.3
				c-0.5-0.1-0.3-0.8-0.5-1.2c-0.3-0.6-1.3-0.6-1.8-0.1C45.2,7.8,45,8.5,44.5,9c-0.1,0.1-0.2,0.1-0.3,0.1c-0.1,0-0.1-0.1-0.1-0.2
				c-0.4-1,0.1-2.4,1.2-2.8"/>
			<path class="st13" d="M44.1,16.3c-0.3-0.2,0-0.6,0.3-0.7c0.6-0.4,1.2-0.7,1.8-0.8c0.7-0.1,1.4,0.1,1.8,0.7
				c0.4,0.6,0.2,1.5-0.5,1.7c-0.4-0.8-1.1-1.4-2-1.6c0,1.1-0.7,2.2-1.7,2.6c0-1.2,0.2-2.5,0.7-3.6"/>
			<path class="st13" d="M44.3,21.9c1.1,0.1,2.2,0.5,3.2,1c-0.4,0.4-1,0-1.4-0.4c-0.4-0.4-1-0.7-1.4-0.3c0.2-0.3,0.4-0.6,0.5-0.9"/>
			<path class="st13" d="M48.5,22.1c-0.6,0.1-1.1,0.7-1,1.4c0.1,0.6,0.7,1.1,1.4,1.1c0.6,0,1.2-0.6,1.3-1.2c0.1-0.9-0.7-1.7-1.6-1.7
				c-0.9,0.1-1.5,1.1-1.3,1.9c0.1,0.4,0.5,0.7,0.9,0.5"/>
			<path class="st13" d="M51.8,23c1,0,1.9-0.6,2.6-1.3c1.2-1,2.2-2.6,1.6-4.1c-0.9-2.3-5.9-3.9-7.6-1.8C46.5,18.3,48.5,23,51.8,23z"
				/>
			<path class="st14" d="M47.1,11.6c0.4,1.2,1.5,2.1,2.7,2.5c0.3,0.1,0.6,0.2,0.9,0.2c1.1,0.1,2.2-0.3,3.1-1
				c0.8-0.7,1.4-1.7,1.7-2.8c0.3-1.3,0.2-2.8-0.5-4c-0.7-1.2-2.1-2-3.5-1.7c-1.4,0.2-2.5,1.6-2.3,3C49.5,10,46.2,8.4,47.1,11.6z"/>
			<path class="st15" d="M51.6,38.9c1.2,0.7,2.6,1,4,0.8c0.6,0,1.2-0.2,1.8-0.4c1.8-0.7,3-2.6,3.5-4.5c0.4-1.4,0.6-2.8,0.2-4.2
				c-1-3.7-6.7-4.4-9.5-2.1C48.8,30.9,48.3,36.8,51.6,38.9z"/>
			<path class="st16" d="M44.4,50c1.8-0.4,3.4-1.7,3.9-3.5c1.3-4.7-4.2-11.2-8.6-6.9C35.7,43.6,38.1,51.2,44.4,50z"/>
			<path class="st17" d="M34,66c0.5,0.5,1.1,0.9,1.8,1.2c2.6,1.1,6,0.7,7.7-1.6c0.4-0.5,0.6-1.1,0.8-1.7c0.6-2.1,0.1-4.5-1.4-6.1
				c-1.8-2-5.8-3.2-7.6-0.8C33.5,59.2,31.8,63.6,34,66z"/>
			<path class="st17" d="M50.3,48.8c0.8,0.8,1.8,1.2,2.9,1.5c0.9,0.3,1.8,0.4,2.7,0.2c0.8-0.2,1.5-0.7,2.1-1.3c1-1,1.7-2.3,1.8-3.7
				c0.2-3.7-4.3-6.4-7.6-4.7C49.5,42.2,48,46.6,50.3,48.8z"/>
			<path class="st13" d="M47.5,28c-1.4,0.2-2.7,0.9-3.7,1.8c-0.4,0.4-0.9,0.9-0.9,1.5c0,0.3,0,0.7,0.1,1c0.3,1.2,0.8,2.4,1.7,3.2
				c0.9,0.9,2.1,1.4,3.3,1.2c0.2,0,0.4-0.1,0.4-0.2c0-0.1,0-0.2-0.1-0.3c-0.8-1.8-0.5-3.9,0.5-5.6c0.4-0.6,1.4-1.2,1.1-2
				C49.5,28,48.1,27.9,47.5,28z"/>
			<path class="st15" d="M36.1,35.4c0.1,0,0.1,0,0.2,0c0.1,0,0.2-0.1,0.2-0.2c1.2-1.4,3.5-1.8,5.2-0.9C41.1,34,41.9,32,42,31.6
				c0.2-1.2,0.5-1-0.2-2.2c-0.8-1.5-2.7-2.7-4.4-2.1C34.2,28.2,32.7,33.9,36.1,35.4z"/>
			<path class="st13" d="M36.2,44.7c0.3-0.1,0.1-0.5-0.2-0.7c-1.4-0.8-3.2-1.1-4.7-0.4c-2,1-2.9,3.4-3.6,5.5
				c-0.1,0.5-0.3,0.9-0.3,1.4c0,0.8,0.5,1.6,1.2,2.1c0.7,0.5,1.5,0.8,2.3,1.1c2.1,0.7,4.7,1.2,6.5-0.1c1.2-0.9,1.8-2.5,2.3-4
				c-0.6-0.5-1.2-0.9-1.7-1.5c-0.8-1-1.2-2.4-0.9-3.7c-0.6-0.5-1.3-0.7-2-0.8c0-0.4,0-0.8,0-1.1"/>
			<path class="st13" d="M59.8,42c0.8,0.9,2,1.3,3.2,1.3c1.4,0.1,3-0.3,4-1.3c0.7-0.7,1.1-1.6,1.3-2.6c0.3-1.8-0.2-3.8-1.5-5.2
				c-1.3-1.3-3.4-1.9-5.2-1.3c0.3,2.2-0.8,3.5-2,5.2C58.9,39.2,58.8,40.8,59.8,42z"/>
			<path class="st16" d="M51.2,52.6c0,2.3,1.1,4.6,3,6c1.8,1.3,4.2,1.7,6.2,0.7c1.3-0.7,2.2-1.9,2.7-3.2c1.3-3.3,0.1-7.4-2.8-9.4
				c-1.2,3-4.8,4.8-7.9,3.9c-0.4-0.1-0.7-0.2-1-0.1C51.4,51.2,51.2,51.9,51.2,52.6z"/>
			<path class="st18" d="M45.5,60.2c-0.2,0.5-0.3,1-0.3,1.6c-0.1,0.5-0.1,1,0,1.5c0.2,0.7,0.8,1.3,1.3,1.8c0.8,0.7,1.6,1.4,2.6,1.7
				c0.6,0.2,1.3,0.1,2,0c1.4-0.3,2.9-1.1,3.6-2.3c0.7-1.2,0.7-2.6,0.2-3.9c-0.5-1.5-1.7-2.7-3.2-3.3C49,56.2,46.5,57.4,45.5,60.2z"
				/>
			<path class="st13" d="M67.7,63.5c1.8-0.8,2.8-2.8,3.3-4.7c0.5-1.8,0.7-3.9-0.6-5.2c-1-1-2.4-1.1-3.8-1.3
				c-0.8-0.1-1.5-0.2-2.3-0.2c1.5,0.1-2.9,7.7-3,8.3C60.5,63.3,65.6,64.4,67.7,63.5z"/>
			<path class="st17" d="M45.6,74.8c0.2,2.4,2.1,4.6,4.5,5c0.9,0.1,1.8,0.1,2.7-0.1c2.1-0.5,4.3-1.6,5.2-3.6
				c0.8-1.7,0.5-3.8-0.6-5.4c-1.6-2.3-5.3-3.9-8-2.7C47.1,69,45.4,72.4,45.6,74.8z"/>
			<path class="st16" d="M60.3,74.6c1,1,2.3,1.6,3.6,1.9c1.6,0.3,3.3-0.1,4.7-0.9c0.7-0.4,1.3-0.9,1.8-1.5c0.8-1,1.1-2.4,1.1-3.7
				c0-4.4-4.4-8.4-8.9-6.5C58.8,65.5,57.4,71.6,60.3,74.6z"/>
			<path class="st13" d="M39.3,72.4c-1.1,1.4-1.1,3.3-0.6,5c0.2,0.5,0.4,1.1,0.8,1.5c0.5,0.5,1.1,0.8,1.8,1c2.1,0.6,4.5,0.1,6.3-1.2
				c-0.7-0.8-1.3-1.6-1.8-2.5c-0.5-1-0.9-2-0.8-3.1c0.1-0.9,0.7-1.9-0.1-2.6C43.6,69.2,40.2,71.4,39.3,72.4z"/>
			<path class="st15" d="M32.6,73.1c-1.6,1.7-2,4.4-1,6.5c0.2,0.5,0.5,0.9,0.9,1.2c0.7,0.6,1.8,0.7,2.7,0.4c0.9-0.3,1.7-0.8,2.5-1.4
				c0.3-0.2,0.6-0.4,0.9-0.6c0.1,0,0.1-0.1,0.1-0.1c0.1-0.1,0-0.3-0.1-0.4c-0.6-1.2-1.1-2.5-1-3.9c0.1-1.4,0.7-2.3,1.6-3.3
				c0.7-0.8,1.2-0.9,0-1.3C37.2,69.5,33.9,71.7,32.6,73.1z"/>
			<path class="st16" d="M39.3,90.8c0.7-2.8,3.4-5,6.3-4.9c0.2,0,0.5,0,0.7-0.2c0.1-0.1,0.2-0.3,0.2-0.5c0.3-2.6-0.3-4.8-3.1-5.6
				c-1.8-0.5-4-0.7-5.5,0.6C34.6,83,34,89.8,39.3,90.8z"/>
			<path class="st17" d="M52.8,90.5c1.8,0.3,3.7-0.2,5.2-1.1c1-0.5,1.9-1.3,2.3-2.3c0.2-0.5,0.2-1.1,0.2-1.7
				c-0.4-3.7-5.7-7.6-9.1-4.9C48.1,83.2,47.9,89.6,52.8,90.5z"/>
			<path class="st13" d="M63,82.6c0.6,0.2,1.2,0.3,1.8,0.3c1.9,0,3.9-1,4.9-2.6c1-1.6,1.2-3.8,0.2-5.5c0.5,0.9-3.3,2.4-3.8,2.5
				c-1.7,0.2-3.1-1.1-4.8-0.9C57.6,76.7,61,81.9,63,82.6z"/>
			<path class="st16" d="M69.5,83.4c2.3,2.1,2.7,5.9,1,8.4c-0.5,0.7-1.1,1.3-1.8,1.7c-0.6,0.3-1.3,0.5-2,0.6c-3.4,0.3-9.5-3.6-6.2-7
				c1-1.1,1.7-2.7,2.9-3.6C65.2,82.1,67.9,81.9,69.5,83.4z"/>
			<path class="st18" d="M53,99.2c0.4,0.5,0.8,1,1.4,1.3c0.4,0.2,0.8,0.3,1.3,0.4c1.4,0.3,2.9,0.4,4.2-0.1c1.9-0.7,3.3-2.6,3.4-4.6
				c0.3-4.3-4.5-6.8-8.3-6c-1.5,0.3-2.5,1.5-3.2,2.8C50.5,95.4,51.3,97.2,53,99.2z"/>
			<path class="st19" d="M63.7,100.1c0.6,1.4,2,2.5,3.5,2.9c1.5,0.5,3.1,0.4,4.6,0.1c1.1-0.2,2.2-0.7,2.7-1.6
				c0.2-0.4,0.4-0.8,0.4-1.3c0.5-2.5-0.1-5.2-1.5-7.4c-0.3-0.5-0.7-0.9-1.2-1.2s-1.2-0.2-1.6,0.2c-0.2,0.2-0.4,0.6-0.5,0.9
				c-0.5,0.9-1.4,1.6-2.5,1.8c-0.9,0.2-2.2-0.6-3,0C63.2,95.3,63.1,98.7,63.7,100.1z"/>
			<path class="st19" d="M56.7,101.8c-0.5,0.1-0.9,0.5-1.3,0.9c-1.5,1.6-2.3,3.8-1.9,6c0.4,2.1,2.2,4,4.4,4.3
				c1.3,0.2,2.6-0.2,3.8-0.7c0.8-0.3,1.5-0.7,2.1-1.3c0.7-0.7,1-1.6,1.3-2.5c0.4-1.5,0.6-3,0.2-4.5c-0.4-1.5-1.6-2.8-3.1-3
				c-0.9-0.1-1.9,0.1-2.8,0.4c-0.7,0.2-1.5,0.4-2.2,0.7c-0.7,0.2-1.4,0.4-2,0.8c-0.6,0.4-1.1,1.1-1.1,1.8c0,0.1,0.1-0.1,0,0"/>
			<path class="st17" d="M65.6,108.8c-0.6,1.3-1.5,2.5-2.5,3.6c-0.1,0.1-0.2,0.2-0.2,0.4c0,0.1,0.1,0.2,0.1,0.4
				c1.2,1.9,3.7,2.9,5.9,2.5s4.1-2.2,4.7-4.3c0.6-2.2-0.2-4.7-1.8-6.2c-0.3-0.3-0.7-0.6-1.1-0.8c-1-0.5-3.9-1-4.6,0.1
				c-0.3,0.4,0,1.2,0,1.7C66.1,107,66,107.9,65.6,108.8z"/>
			<path class="st19" d="M48.8,100.2c-1.5,0.6-3.2,1.6-3.5,3.2c-0.2,0.8,0,1.6,0.2,2.4c0.3,1.4,0.7,2.9,1.9,3.6
				c0.5,0.3,1.1,0.4,1.7,0.4c0.6,0,1.2,0,1.7-0.3c1.4-0.6,1.9-2.4,2-4c0-0.6,0-1.2,0.3-1.7c0.3-0.5,0.8-0.8,0.9-1.3
				c0.1-0.5-0.1-0.9-0.4-1.3C52.3,99.9,50.6,99.5,48.8,100.2z"/>
			<path class="st13" d="M53.1,116c0.3,0.5,0.7,1,1.2,1.4c1.1,0.7,2.5,0.6,3.6-0.1c1.1-0.6,1.9-1.7,2.6-2.7c0.3-0.4,0.5-1,0.1-1.3
				c-1.2-0.1-2.3-0.2-3.5-0.3c-2-0.2-2.6-3.3-4.5-2.8C49.9,110.9,52.3,114.7,53.1,116z"/>
			<path class="st17" d="M47.3,86.8c-0.5-0.5-1.2-0.7-1.9-0.6s-1.3,0.5-1.9,0.8c-1.4,0.9-2.6,2.1-3.3,3.6c-0.7,1.5-0.7,3.4,0.1,4.8
				c0.5,0.7,1.1,1.3,1.8,1.7c1.2,0.7,2.6,1.1,4,1c1.4-0.1,2.8-0.8,3.6-1.9c0.8-1,1.1-2.4,1-3.7s-0.5-2.6-1-3.8
				c-0.4-1.1-1.1-2.2-2.2-2.4c-0.8-0.2-1.8,0.2-2.5-0.3"/>
			<path class="st13" d="M69.3,63.6c0.6,1,1.1,2.1,1.6,3.1c0.6-0.2,1.1-0.7,1.3-1.3s0.4-1.2,0.5-1.9C73.7,57.6,69.4,63.9,69.3,63.6z
				"/>
			<path class="st13" d="M66.6,44.5c0.3,0.3,0.5,0.7,0.7,1.1c0.3,0.7,0.7,1.5,1,2.2c0.1,0.3,0.3,0.6,0.4,0.9c0.2,1-0.5,2-1.4,2.5
				c-0.9,0.5-2,0.6-3,0.5c-0.1,0-0.2,0-0.2,0c-0.2-0.1-0.3-0.4-0.3-0.7c0-1-0.3-1.9-0.8-2.8c-0.4-0.7-1.7-1.5-1.6-2.4
				C61.5,43.9,65.4,43.3,66.6,44.5z"/>
			<path class="st20" d="M30.3,58.3c-1,0.9-1.6,2.2-1.6,3.5c0,1.1,0.4,2.1,0.9,3c0.3,0.7,0.7,1.5,1.3,2c1.4,1.4,3.8,1.7,5.4,0.7
				c-1.1-0.5-2.2-1-2.8-2c-0.6-1-0.5-2.3-0.4-3.5c0.1-1.3,0.3-2.6,0.9-3.7c0.6-1.1,1.4-2.1-0.4-1.9C32.5,56.6,31.1,57.6,30.3,58.3z"
				/>
			<path class="st13" d="M43,55.4c0.4,0.8,1.3,1.2,2.2,1.5c1.1,0.4,2.4,0.7,3.4,0.1c0.7-0.4,1.1-1.3,1.4-2.1
				c0.3-0.8,0.6-1.7,0.5-2.6C50.3,47.3,40.9,50.6,43,55.4z"/>
			<path class="st13" d="M32.9,39.5c0.4,0.3,1,0.3,1.3,0c0.2-0.2,0.3-0.4,0.4-0.6c0.7-1.4,2-6.8-1.4-6.2
				C30.7,33.2,31.1,38.4,32.9,39.5z"/>
			<path class="st13" d="M34.8,38.8c0.7-1.3,1.6-2.6,2.9-3.4s2.8-1.2,4.3-1c2.1,0.4,3.8,2.1,4.2,4.1c-0.5-0.9-1.7-1.3-2.7-1.3
				s-2,0.5-3,0.9c-0.8,0.4-1.5,0.8-2.1,1.5c-0.5,0.6-0.7,1.7-1.5,2.1C35.2,42.7,34.1,40.2,34.8,38.8z"/>
		</g>
		<path class="st21" d="M58.6,61.3c0.1-0.1,0.2-0.2,0.3-0.3c-0.5-0.2-1.1-0.1-1.6,0.3c-0.4,0.3-0.8,0.8-1.1,1.2
			c-0.2,0.3-0.4,0.6-0.6,1c-0.5,1.3,0.1,2.9,1.4,3.4c1.2,0.6,2.9,0,3.5-1.2c0.2-0.5,0.3-1,0.4-1.5c0.1-0.9,0.2-2-0.4-2.7
			c-0.5-0.5-1.3-0.7-2-0.5c-0.7,0.2-1.3,0.6-1.8,1.2"/>
		<path class="st22" d="M45.2,65.5c0.1,0,0.2-0.2,0.1-0.3s-0.2-0.1-0.3-0.1c-1.2,0-2.1,1.3-1.9,2.5c0.2,1.2,1.5,1.9,2.7,1.7
			c1.3-0.3,2.2-1.7,1.8-3c-0.4-1.3-2-2-3.2-1.4"/>
		<path class="st23" d="M40.8,51c-0.9-0.3-1.9,0.1-2.5,0.9c-0.5,0.8-0.5,1.9,0.1,2.6c0.7,0.8,1.8,1.1,2.9,1.1c0.3,0,0.5,0,0.8-0.1
			c0.3-0.2,0.4-0.6,0.5-0.9c0.2-1.1,0.3-2.3,0.4-3.4c0-0.2,0-0.4-0.1-0.6c-0.1-0.2-0.3-0.2-0.5-0.3c-0.9-0.2-1.8-0.1-2.6,0.3
			c0,0.2,0,0.3,0,0.5"/>
	</g>
</g>
</svg>
